<?xml version="1.0" encoding="UTF-8" standalone="no"?>
<!-- Created with Inkscape (http://www.inkscape.org/) -->

<svg
   xmlns:dc="http://purl.org/dc/elements/1.1/"
   xmlns:cc="http://creativecommons.org/ns#"
   xmlns:rdf="http://www.w3.org/1999/02/22-rdf-syntax-ns#"
   xmlns:svg="http://www.w3.org/2000/svg"
   xmlns="http://www.w3.org/2000/svg"
   version="1.1"
   width="682.04572"
   height="305.48593"
   id="svg5332">
  <defs
     id="defs5334" />
  <metadata
     id="metadata5337">
    <rdf:RDF>
      <cc:Work
         rdf:about="">
        <dc:format>image/svg+xml</dc:format>
        <dc:type
           rdf:resource="http://purl.org/dc/dcmitype/StillImage" />
        <dc:title></dc:title>
      </cc:Work>
    </rdf:RDF>
  </metadata>
  <g
     transform="translate(0,-746.87626)"
     id="layer1">
    <g
       transform="translate(-768.18921,58.539963)"
       id="g5225">
      <path
         d="m 768.18921,690.24597 c 0,101.19209 0,202.38418 0,303.57625 227.34854,0 454.69709,0 682.04569,0 0,-101.82861 0,-203.65728 0,-305.48592 -227.3486,0 -454.69715,0 -682.04569,0 l 0,0.95484 0,0.95483 z"
         id="path5227"
         style="color:#000000;fill:#000000;fill-opacity:1;fill-rule:nonzero;stroke:none;stroke-width:5.31496048;marker:none;visibility:visible;display:inline;overflow:visible;enable-background:accumulate" />
      <g
         transform="translate(677.61223,1034.0352)"
         id="g5229"
         style="fill:#ffffff">
        <path
           d="m 366.96875,745.9375 0,48.59375 0,58.46875 0,78.46875 37,0 -0.002,-82.25029 47.37725,82.25591 45.25,-0.006 -42.22631,-73.994 c 18.42048,-10.08168 30.35131,-29.68656 30.35131,-52.16225 0,-32.78697 -26.58803,-59.375 -59.375,-59.375 -0.40734,0 -0.81339,0.0201 -1.21875,0.0312 l 0,-0.0312 -0.15625,0 -20,0 z m 37,36.40625 18.875,0 c 30.39869,0.003 30.39869,47.11352 0,47.125 l -18.875,0 z"
           transform="translate(0,-1052.3622)"
           id="path5231"
           style="color:#000000;fill:#ffffff;fill-opacity:1;fill-rule:nonzero;stroke:none;stroke-width:5.31496048;marker:none;visibility:visible;display:inline;overflow:visible;enable-background:accumulate" />
        <path
           d="m 259.71875,740.0625 c -54.27181,0 -98.28125,44.00944 -98.28125,98.28125 0,54.27181 44.00944,98.25 98.28125,98.25 54.27181,0 98.25,-43.97819 98.25,-98.25 0,-54.27181 -43.97819,-98.28125 -98.25,-98.28125 z m 0,37.21875 c 33.72422,0 61.0625,27.33828 61.0625,61.0625 0,33.72422 -27.33828,61.0625 -61.0625,61.0625 -33.72422,0 -61.0625,-27.33828 -61.0625,-61.0625 0,-33.72422 27.33828,-61.0625 61.0625,-61.0625 z"
           transform="translate(0,-1052.3622)"
           id="path5233"
           style="color:#000000;fill:#ffffff;fill-opacity:1;fill-rule:nonzero;stroke:none;stroke-width:0;marker:none;visibility:visible;display:inline;overflow:visible;enable-background:accumulate" />
        <path
           d="m 640.34375,740.9375 c -53.78855,0 -97.40625,43.6177 -97.40625,97.40625 0,53.78855 43.6177,97.375 97.40625,97.375 32.58307,0 61.44994,-15.99532 79.125,-40.5625 L 689.40625,873.75 c -10.99409,15.19678 -28.87192,25.09375 -49.0625,25.09375 -33.42392,0 -60.5,-27.07607 -60.5,-60.5 0,-33.42392 27.07608,-60.53125 60.5,-60.53125 19.86108,0 37.49666,9.56664 48.53125,24.34375 l 29.6875,-21.875 C 700.81745,756.40518 672.37786,740.9375 640.34375,740.9375 z"
           transform="translate(0,-1052.3622)"
           id="path5235"
           style="color:#000000;fill:#ffffff;fill-opacity:1;fill-rule:nonzero;stroke:none;stroke-width:0;marker:none;visibility:visible;display:inline;overflow:visible;enable-background:accumulate" />
        <rect
           width="37.204723"
           height="185.5356"
           x="496.60764"
           y="-306.42343"
           id="rect5237"
           style="color:#000000;fill:#ffffff;fill-opacity:1;fill-rule:nonzero;stroke:none;stroke-width:0;marker:none;visibility:visible;display:inline;overflow:visible;enable-background:accumulate" />
      </g>
      <path
         d="m 805.39393,956.61747 49.55229,0 558.08388,0 0,-35.0017 -531.6228,0 148.1939,-196.07474 -49.55232,0 z"
         id="path5239"
         style="color:#000000;fill:#e41c1c;fill-opacity:1;fill-rule:nonzero;stroke:none;stroke-width:0;marker:none;visibility:visible;display:inline;overflow:visible;enable-background:accumulate" />
    </g>
  </g>
</svg>
