STARTFONT 2.1
FONT neoletters
SIZE 16 150 150
COMMENT x 16 0 -8 ... 16 fixed can't do smaller
FONTBOUNDINGBOX 6 16 0 -4
STARTPROPERTIES 3
PIXEL_SIZE 16
FONT_ASCENT 8
FONT_DESCENT 4
ENDPROPERTIES
CHARS 96
STARTCHAR A
ENCODING 32
SWIDTH 200 0
DWIDTH 8 0
BBX 6 8 0 0
BITMAP
00
00
00
00
00
00
00
00
ENDCHAR
STARTCHAR A
ENCODING 33
SWIDTH 200 0
DWIDTH 8 0
BBX 6 8 0 0
BITMAP
08
08
08
08
08
00
08
00
ENDCHAR
STARTCHAR A
ENCODING 34
SWIDTH 200 0
DWIDTH 8 0
BBX 6 8 0 0
BITMAP
14
14
14
00
00
00
00
00
ENDCHAR
STARTCHAR A
ENCODING 35
SWIDTH 200 0
DWIDTH 8 0
BBX 6 8 0 0
BITMAP
14
14
3E
14
3E
14
14
00
ENDCHAR
STARTCHAR A
ENCODING 36
SWIDTH 200 0
DWIDTH 8 0
BBX 6 8 0 0
BITMAP
08
1E
28
1C
0A
3C
08
00
ENDCHAR
STARTCHAR A
ENCODING 37
SWIDTH 200 0
DWIDTH 8 0
BBX 6 8 0 0
BITMAP
30
32
04
08
10
26
06
00
ENDCHAR
STARTCHAR A
ENCODING 38
SWIDTH 200 0
DWIDTH 8 0
BBX 6 8 0 0
BITMAP
10
28
28
10
2A
24
1A
00
ENDCHAR
STARTCHAR A
ENCODING 39
SWIDTH 200 0
DWIDTH 8 0
BBX 6 8 0 0
BITMAP
08
08
08
00
00
00
00
00
ENDCHAR
STARTCHAR A
ENCODING 40
SWIDTH 200 0
DWIDTH 8 0
BBX 6 8 0 0
BITMAP
08
10
20
20
20
10
08
00
ENDCHAR
STARTCHAR A
ENCODING 41
SWIDTH 200 0
DWIDTH 8 0
BBX 6 8 0 0
BITMAP
08
04
02
02
02
04
08
00
ENDCHAR
STARTCHAR A
ENCODING 42
SWIDTH 200 0
DWIDTH 8 0
BBX 6 8 0 0
BITMAP
08
2A
1C
08
1C
2A
08
00
ENDCHAR
STARTCHAR A
ENCODING 43
SWIDTH 200 0
DWIDTH 8 0
BBX 6 8 0 0
BITMAP
00
08
08
3E
08
08
00
00
ENDCHAR
STARTCHAR A
ENCODING 44
SWIDTH 200 0
DWIDTH 8 0
BBX 6 8 0 0
BITMAP
00
00
00
00
00
08
08
10
ENDCHAR
STARTCHAR A
ENCODING 45
SWIDTH 200 0
DWIDTH 8 0
BBX 6 8 0 0
BITMAP
00
00
00
3E
00
00
00
00
ENDCHAR
STARTCHAR A
ENCODING 46
SWIDTH 200 0
DWIDTH 8 0
BBX 6 8 0 0
BITMAP
00
00
00
00
00
04
00
00
ENDCHAR
STARTCHAR A
ENCODING 47
SWIDTH 200 0
DWIDTH 8 0
BBX 6 8 0 0
BITMAP
00
02
04
08
10
20
00
00
ENDCHAR
STARTCHAR A
ENCODING 48
SWIDTH 200 0
DWIDTH 8 0
BBX 6 8 0 0
BITMAP
1C
22
26
2A
32
22
1C
00
ENDCHAR
STARTCHAR A
ENCODING 49
SWIDTH 200 0
DWIDTH 8 0
BBX 6 8 0 0
BITMAP
08
18
08
08
08
08
1C
00
ENDCHAR
STARTCHAR A
ENCODING 50
SWIDTH 200 0
DWIDTH 8 0
BBX 6 8 0 0
BITMAP
1C
22
02
04
08
10
3E
00
ENDCHAR
STARTCHAR A
ENCODING 51
SWIDTH 200 0
DWIDTH 8 0
BBX 6 8 0 0
BITMAP
3E
02
04
0C
02
22
1C
00
ENDCHAR
STARTCHAR A
ENCODING 52
SWIDTH 200 0
DWIDTH 8 0
BBX 6 8 0 0
BITMAP
04
0C
14
24
3E
04
04
00
ENDCHAR
STARTCHAR A
ENCODING 53
SWIDTH 200 0
DWIDTH 8 0
BBX 6 8 0 0
BITMAP
3E
20
3C
02
02
22
1C
00
ENDCHAR
STARTCHAR A
ENCODING 54
SWIDTH 200 0
DWIDTH 8 0
BBX 6 8 0 0
BITMAP
0C
10
20
3C
22
22
1C
00
ENDCHAR
STARTCHAR A
ENCODING 55
SWIDTH 200 0
DWIDTH 8 0
BBX 6 8 0 0
BITMAP
3E
02
04
08
10
10
10
00
ENDCHAR
STARTCHAR A
ENCODING 56
SWIDTH 200 0
DWIDTH 8 0
BBX 6 8 0 0
BITMAP
1C
22
22
1C
22
22
1C
00
ENDCHAR
STARTCHAR A
ENCODING 57
SWIDTH 200 0
DWIDTH 8 0
BBX 6 8 0 0
BITMAP
1C
22
22
1E
02
04
18
00
ENDCHAR
STARTCHAR A
ENCODING 58
SWIDTH 200 0
DWIDTH 8 0
BBX 6 8 0 0
BITMAP
00
00
08
00
00
08
00
00
ENDCHAR
STARTCHAR A
ENCODING 59
SWIDTH 200 0
DWIDTH 8 0
BBX 6 8 0 0
BITMAP
00
00
08
00
00
08
08
10
ENDCHAR
STARTCHAR A
ENCODING 60
SWIDTH 200 0
DWIDTH 8 0
BBX 6 8 0 0
BITMAP
04
08
10
20
10
08
04
00
ENDCHAR
STARTCHAR A
ENCODING 61
SWIDTH 200 0
DWIDTH 8 0
BBX 6 8 0 0
BITMAP
00
00
3E
00
3E
00
00
00
ENDCHAR
STARTCHAR A
ENCODING 62
SWIDTH 200 0
DWIDTH 8 0
BBX 6 8 0 0
BITMAP
10
08
04
02
04
08
10
00
ENDCHAR
STARTCHAR A
ENCODING 63
SWIDTH 200 0
DWIDTH 8 0
BBX 6 8 0 0
BITMAP
1C
22
04
08
08
00
08
00
ENDCHAR
STARTCHAR A
ENCODING 64
SWIDTH 200 0
DWIDTH 8 0
BBX 6 8 0 0
BITMAP
1C
22
2A
2E
2C
20
1E
00
ENDCHAR
STARTCHAR A
ENCODING 65
SWIDTH 200 0
DWIDTH 8 0
BBX 6 8 0 0
BITMAP
08
14
22
22
3E
22
22
00
ENDCHAR
STARTCHAR A
ENCODING 66
SWIDTH 200 0
DWIDTH 8 0
BBX 6 8 0 0
BITMAP
3C
22
22
3C
22
22
3C
00
ENDCHAR
STARTCHAR A
ENCODING 67
SWIDTH 200 0
DWIDTH 8 0
BBX 6 8 0 0
BITMAP
1C
22
20
20
20
22
1C
00
ENDCHAR
STARTCHAR A
ENCODING 68
SWIDTH 200 0
DWIDTH 8 0
BBX 6 8 0 0
BITMAP
3C
22
22
22
22
22
3C
00
ENDCHAR
STARTCHAR A
ENCODING 69
SWIDTH 200 0
DWIDTH 8 0
BBX 6 8 0 0
BITMAP
3E
20
20
3C
20
20
3E
00
ENDCHAR
STARTCHAR A
ENCODING 70
SWIDTH 200 0
DWIDTH 8 0
BBX 6 8 0 0
BITMAP
3E
20
20
3C
20
20
20
00
ENDCHAR
STARTCHAR A
ENCODING 71
SWIDTH 200 0
DWIDTH 8 0
BBX 6 8 0 0
BITMAP
1E
20
20
20
26
22
1E
00
ENDCHAR
STARTCHAR A
ENCODING 72
SWIDTH 200 0
DWIDTH 8 0
BBX 6 8 0 0
BITMAP
22
22
22
3E
22
22
22
00
ENDCHAR
STARTCHAR A
ENCODING 73
SWIDTH 200 0
DWIDTH 8 0
BBX 6 8 0 0
BITMAP
1C
08
08
08
08
08
1C
00
ENDCHAR
STARTCHAR A
ENCODING 74
SWIDTH 200 0
DWIDTH 8 0
BBX 6 8 0 0
BITMAP
02
02
02
02
02
22
1C
00
ENDCHAR
STARTCHAR A
ENCODING 75
SWIDTH 200 0
DWIDTH 8 0
BBX 6 8 0 0
BITMAP
22
24
28
30
28
24
22
00
ENDCHAR
STARTCHAR A
ENCODING 76
SWIDTH 200 0
DWIDTH 8 0
BBX 6 8 0 0
BITMAP
20
20
20
20
20
20
3E
00
ENDCHAR
STARTCHAR A
ENCODING 77
SWIDTH 200 0
DWIDTH 8 0
BBX 6 8 0 0
BITMAP
22
36
2A
2A
22
22
22
00
ENDCHAR
STARTCHAR A
ENCODING 78
SWIDTH 200 0
DWIDTH 8 0
BBX 6 8 0 0
BITMAP
22
22
32
2A
26
22
22
00
ENDCHAR
STARTCHAR A
ENCODING 79
SWIDTH 200 0
DWIDTH 8 0
BBX 6 8 0 0
BITMAP
1C
22
22
22
22
22
1C
00
ENDCHAR
STARTCHAR A
ENCODING 80
SWIDTH 200 0
DWIDTH 8 0
BBX 6 8 0 0
BITMAP
3C
22
22
3C
20
20
20
00
ENDCHAR
STARTCHAR A
ENCODING 81
SWIDTH 200 0
DWIDTH 8 0
BBX 6 8 0 0
BITMAP
1C
22
22
22
2A
24
1A
00
ENDCHAR
STARTCHAR A
ENCODING 82
SWIDTH 200 0
DWIDTH 8 0
BBX 6 8 0 0
BITMAP
3C
22
22
3C
28
24
22
00
ENDCHAR
STARTCHAR A
ENCODING 83
SWIDTH 200 0
DWIDTH 8 0
BBX 6 8 0 0
BITMAP
1C
22
20
1C
02
22
1C
00
ENDCHAR
STARTCHAR A
ENCODING 84
SWIDTH 200 0
DWIDTH 8 0
BBX 6 8 0 0
BITMAP
3E
08
08
08
08
08
08
00
ENDCHAR
STARTCHAR A
ENCODING 85
SWIDTH 200 0
DWIDTH 8 0
BBX 6 8 0 0
BITMAP
22
22
22
22
22
22
1C
00
ENDCHAR
STARTCHAR A
ENCODING 86
SWIDTH 200 0
DWIDTH 8 0
BBX 6 8 0 0
BITMAP
22
22
22
22
22
14
08
00
ENDCHAR
STARTCHAR A
ENCODING 87
SWIDTH 200 0
DWIDTH 8 0
BBX 6 8 0 0
BITMAP
22
22
22
2A
2A
36
22
00
ENDCHAR
STARTCHAR A
ENCODING 88
SWIDTH 200 0
DWIDTH 8 0
BBX 6 8 0 0
BITMAP
22
22
14
08
14
22
22
00
ENDCHAR
STARTCHAR A
ENCODING 89
SWIDTH 200 0
DWIDTH 8 0
BBX 6 8 0 0
BITMAP
22
22
14
08
08
08
08
00
ENDCHAR
STARTCHAR A
ENCODING 90
SWIDTH 200 0
DWIDTH 8 0
BBX 6 8 0 0
BITMAP
3E
02
04
08
10
20
3E
00
ENDCHAR
STARTCHAR A
ENCODING 91
SWIDTH 200 0
DWIDTH 8 0
BBX 6 8 0 0
BITMAP
1E
10
10
10
10
10
1E
00
ENDCHAR
STARTCHAR A
ENCODING 92
SWIDTH 200 0
DWIDTH 8 0
BBX 6 8 0 0
BITMAP
00
20
10
08
04
02
00
00
ENDCHAR
STARTCHAR A
ENCODING 93
SWIDTH 200 0
DWIDTH 8 0
BBX 6 8 0 0
BITMAP
3C
04
04
04
04
04
3C
00
ENDCHAR
STARTCHAR A
ENCODING 94
SWIDTH 200 0
DWIDTH 8 0
BBX 6 8 0 0
BITMAP
08
14
2A
08
08
08
08
00
ENDCHAR
STARTCHAR A
ENCODING 95
SWIDTH 200 0
DWIDTH 8 0
BBX 6 8 0 0
BITMAP
0E
10
10
10
3C
10
3E
00
ENDCHAR
STARTCHAR A
ENCODING 96
SWIDTH 200 0
DWIDTH 8 0
BBX 6 8 0 0
BITMAP
0C
12
2D
29
29
2D
12
0C
ENDCHAR
STARTCHAR A
ENCODING 97
SWIDTH 200 0
DWIDTH 8 0
BBX 6 8 0 0
BITMAP
00
00
1C
02
1E
22
1E
00
ENDCHAR
STARTCHAR A
ENCODING 98
SWIDTH 200 0
DWIDTH 8 0
BBX 6 8 0 0
BITMAP
20
20
3C
22
22
22
3C
00
ENDCHAR
STARTCHAR A
ENCODING 99
SWIDTH 200 0
DWIDTH 8 0
BBX 6 8 0 0
BITMAP
00
00
1E
20
20
20
1E
00
ENDCHAR
STARTCHAR A
ENCODING 100
SWIDTH 200 0
DWIDTH 8 0
BBX 6 8 0 0
BITMAP
02
02
1E
22
22
22
1E
00
ENDCHAR
STARTCHAR A
ENCODING 101
SWIDTH 200 0
DWIDTH 8 0
BBX 6 8 0 0
BITMAP
00
00
1C
22
3E
20
1E
00
ENDCHAR
STARTCHAR A
ENCODING 102
SWIDTH 200 0
DWIDTH 8 0
BBX 6 8 0 0
BITMAP
0C
12
10
3C
10
10
10
00
ENDCHAR
STARTCHAR A
ENCODING 103
SWIDTH 200 0
DWIDTH 8 0
BBX 6 8 0 0
BITMAP
00
00
1C
22
22
1E
02
1C
ENDCHAR
STARTCHAR A
ENCODING 104
SWIDTH 200 0
DWIDTH 8 0
BBX 6 8 0 0
BITMAP
20
20
3C
22
22
22
22
00
ENDCHAR
STARTCHAR A
ENCODING 105
SWIDTH 200 0
DWIDTH 8 0
BBX 6 8 0 0
BITMAP
08
00
18
08
08
08
1C
00
ENDCHAR
STARTCHAR A
ENCODING 106
SWIDTH 200 0
DWIDTH 8 0
BBX 6 8 0 0
BITMAP
04
00
0C
04
04
04
24
18
ENDCHAR
STARTCHAR A
ENCODING 107
SWIDTH 200 0
DWIDTH 8 0
BBX 6 8 0 0
BITMAP
20
20
22
24
38
24
22
00
ENDCHAR
STARTCHAR A
ENCODING 108
SWIDTH 200 0
DWIDTH 8 0
BBX 6 8 0 0
BITMAP
18
08
08
08
08
08
1C
00
ENDCHAR
STARTCHAR A
ENCODING 109
SWIDTH 200 0
DWIDTH 8 0
BBX 6 8 0 0
BITMAP
00
00
36
2A
2A
2A
22
00
ENDCHAR
STARTCHAR A
ENCODING 110
SWIDTH 200 0
DWIDTH 8 0
BBX 6 8 0 0
BITMAP
00
00
3C
22
22
22
22
00
ENDCHAR
STARTCHAR A
ENCODING 111
SWIDTH 200 0
DWIDTH 8 0
BBX 6 8 0 0
BITMAP
00
00
1C
22
22
22
1C
00
ENDCHAR
STARTCHAR A
ENCODING 112
SWIDTH 200 0
DWIDTH 8 0
BBX 6 8 0 0
BITMAP
00
00
3C
22
22
3C
20
20
ENDCHAR
STARTCHAR A
ENCODING 113
SWIDTH 200 0
DWIDTH 8 0
BBX 6 8 0 0
BITMAP
00
00
1E
22
22
1E
02
02
ENDCHAR
STARTCHAR A
ENCODING 114
SWIDTH 200 0
DWIDTH 8 0
BBX 6 8 0 0
BITMAP
00
00
2E
30
20
20
20
00
ENDCHAR
STARTCHAR A
ENCODING 115
SWIDTH 200 0
DWIDTH 8 0
BBX 6 8 0 0
BITMAP
00
00
1E
20
1C
02
3C
00
ENDCHAR
STARTCHAR A
ENCODING 116
SWIDTH 200 0
DWIDTH 8 0
BBX 6 8 0 0
BITMAP
10
10
3C
10
10
12
0C
00
ENDCHAR
STARTCHAR A
ENCODING 117
SWIDTH 200 0
DWIDTH 8 0
BBX 6 8 0 0
BITMAP
00
00
22
22
22
26
1A
00
ENDCHAR
STARTCHAR A
ENCODING 118
SWIDTH 200 0
DWIDTH 8 0
BBX 6 8 0 0
BITMAP
00
00
22
22
22
14
08
00
ENDCHAR
STARTCHAR A
ENCODING 119
SWIDTH 200 0
DWIDTH 8 0
BBX 6 8 0 0
BITMAP
00
00
22
22
2A
2A
36
00
ENDCHAR
STARTCHAR A
ENCODING 120
SWIDTH 200 0
DWIDTH 8 0
BBX 6 8 0 0
BITMAP
00
00
22
14
08
14
22
00
ENDCHAR
STARTCHAR A
ENCODING 121
SWIDTH 200 0
DWIDTH 8 0
BBX 6 8 0 0
BITMAP
00
00
22
22
22
1E
02
1C
ENDCHAR
STARTCHAR A
ENCODING 122
SWIDTH 200 0
DWIDTH 8 0
BBX 6 8 0 0
BITMAP
00
00
3E
04
08
10
3E
00
ENDCHAR
STARTCHAR A
ENCODING 123
SWIDTH 200 0
DWIDTH 8 0
BBX 6 8 0 0
BITMAP
0E
18
18
30
18
18
0E
00
ENDCHAR
STARTCHAR A
ENCODING 124
SWIDTH 200 0
DWIDTH 8 0
BBX 6 8 0 0
BITMAP
08
08
08
08
08
08
08
08
ENDCHAR
STARTCHAR A
ENCODING 125
SWIDTH 200 0
DWIDTH 8 0
BBX 6 8 0 0
BITMAP
38
0C
0C
06
0C
0C
38
00
ENDCHAR
STARTCHAR A
ENCODING 126
SWIDTH 200 0
DWIDTH 8 0
BBX 6 8 0 0
BITMAP
2A
15
2A
15
2A
15
2A
15
ENDCHAR
STARTCHAR A
ENCODING 127
SWIDTH 200 0
DWIDTH 8 0
BBX 6 8 0 0
BITMAP
3F
3F
3F
3F
3F
3F
3F
3F
ENDCHAR
ENDFONT
